<svg xmlns="http://www.w3.org/2000/svg" width="256" height="249.6" viewBox="0 0 256 249.6">
  <path d="M85.6 201c0 1-1.2 1.8-2.7 1.8-1.7.2-2.8-.6-2.8-1.8 0-1 1.1-1.9 2.6-1.9 1.6-.1 3 .7 3 1.9zm-16-2.3c-.4 1 .6 2.2 2.2 2.5 1.3.5 2.9 0 3.2-1 .3-1-.7-2.3-2.2-2.7-1.4-.4-2.9.1-3.2 1.2zm22.8-1c-1.5.4-2.5 1.4-2.4 2.6.2 1 1.5 1.7 3 1.3 1.6-.3 2.6-1.3 2.4-2.3-.1-1-1.5-1.7-3-1.5zM126.4 0A123.8 123.8 0 0 0 0 126a129.4 129.4 0 0 0 87.5 123.4c6.6 1.2 9-2.9 9-6.3l-.2-31.6S60 219.2 52.5 196c0 0-5.8-15-14.3-19 0 0-11.8-8 .8-7.9 0 0 12.9 1 20 13.4 11.2 19.9 30.2 14.1 37.6 10.7 1.2-8.2 4.5-14 8.2-17.4-28.8-3.2-58-7.3-58-57 0-14.2 4-21.3 12.2-30.4a48.8 48.8 0 0 1 1.4-35C71.2 50 96 67.5 96 67.5a121.3 121.3 0 0 1 64.8 0s24.9-17.4 35.6-14a48.7 48.7 0 0 1 1.4 35C206 97.7 211 104.8 211 119c0 49.8-30.4 53.8-59.3 57 4.8 4.1 8.8 11.9 8.8 24l-.1 43.1c0 3.4 2.3 7.5 8.9 6.3A128.2 128.2 0 0 0 256 125.9C256 54.3 198 0 126.4 0zM50.2 178c-.7.5-.5 1.7.3 2.7.9.8 2 1.2 2.7.5.7-.5.5-1.7-.3-2.7-.9-.8-2-1.2-2.7-.5zm-5.6-4.2c-.4.7.2 1.5 1.2 2 .8.6 1.8.4 2.2-.3.4-.7-.2-1.5-1.2-2-1-.3-1.8-.2-2.2.3zm16.7 18.4c-.8.7-.5 2.2.7 3.2 1.2 1.2 2.7 1.3 3.3.5.7-.7.4-2.2-.6-3.2-1.2-1.2-2.7-1.3-3.4-.5zm-5.9-7.6c-.8.5-.8 1.9 0 3 .9 1.2 2.3 1.8 3 1.2.8-.6.8-2 0-3.2-.8-1.1-2.1-1.7-3-1z"/>
</svg>
