<svg xmlns="http://www.w3.org/2000/svg" xmlns:xlink="http://www.w3.org/1999/xlink" width="256" height="255.9">
  <defs>
    <linearGradient id="b">
      <stop offset="0" stop-color="#3771c8"/>
      <stop offset=".1" stop-color="#3771c8"/>
      <stop offset="1" stop-color="#60f" stop-opacity="0"/>
    </linearGradient>
    <linearGradient id="a">
      <stop offset="0" stop-color="#fd5"/>
      <stop offset=".1" stop-color="#fd5"/>
      <stop offset=".5" stop-color="#ff543e"/>
      <stop offset="1" stop-color="#c837ab"/>
    </linearGradient>
    <radialGradient id="c" cx="158.4" cy="578.1" r="65" fx="158.4" fy="578.1" gradientTransform="matrix(0 -3.90224 3.63038 0 -2030.7 893.9)" gradientUnits="userSpaceOnUse" xlink:href="#a"/>
    <radialGradient id="d" cx="147.7" cy="473.5" r="65" fx="147.7" fy="473.5" gradientTransform="matrix(.34246 1.71039 -7.05206 1.41203 3245.4 -902.7)" gradientUnits="userSpaceOnUse" xlink:href="#b"/>
  </defs>
  <path fill="url(#c)" d="M128 0C74.6 0 59 0 56 .3 45 1.3 38 3 30.6 6.6A55 55 0 0 0 1.2 48.5C.3 54.5 0 55.8 0 86.3V128c0 53.4 0 69 .3 72a64.3 64.3 0 0 0 6.1 24.8 54 54 0 0 0 35 28.5 90.8 90.8 0 0 0 18.6 2.5l67.8.2c32.3 0 64.6 0 67.7-.2 8.7-.4 13.7-1 19.3-2.5a53.6 53.6 0 0 0 35-28.6 63.2 63.2 0 0 0 6-24.2l.2-72.5c0-35.1 0-70.2-.3-72.4a62.5 62.5 0 0 0-6.1-24.5 55.3 55.3 0 0 0-42.1-29.8c-6-.9-7.2-1.1-37.8-1.2z"/>
  <path fill="url(#d)" d="M128 0C74.6 0 59 0 56 .3 45 1.3 38 3 30.6 6.6A55 55 0 0 0 1.2 48.5C.3 54.5 0 55.8 0 86.3V128c0 53.4 0 69 .3 72a64.3 64.3 0 0 0 6.1 24.8 54 54 0 0 0 35 28.5 90.8 90.8 0 0 0 18.6 2.5l67.8.2c32.3 0 64.6 0 67.7-.2 8.7-.4 13.7-1 19.3-2.5a53.6 53.6 0 0 0 35-28.6 63.2 63.2 0 0 0 6-24.2l.2-72.5c0-35.1 0-70.2-.3-72.4a62.5 62.5 0 0 0-6.1-24.5 55.3 55.3 0 0 0-42.1-29.8c-6-.9-7.2-1.1-37.8-1.2z"/>
  <path fill="#fff" d="M128 33.5c-25.7 0-28.9 0-39 .5-10 .5-17 2.1-23 4.4a46.3 46.3 0 0 0-16.7 11A46.4 46.4 0 0 0 38.4 66 69 69 0 0 0 34 89c-.4 10-.5 13.2-.5 38.9 0 25.6 0 28.9.5 39 .5 10 2.1 16.9 4.4 22.9a46.3 46.3 0 0 0 11 16.7 46.3 46.3 0 0 0 16.7 11c6 2.3 12.8 3.8 23 4.3 10 .5 13.2.6 38.9.6 25.6 0 28.9-.1 39-.6 10-.5 16.9-2 22.9-4.4a46.2 46.2 0 0 0 16.7-10.9 46.4 46.4 0 0 0 11-16.7 70 70 0 0 0 4.3-23c.5-10 .6-13.3.6-39 0-25.6-.1-28.8-.6-38.9-.5-10-2-17-4.4-23a46.4 46.4 0 0 0-10.9-16.7A46.2 46.2 0 0 0 190 38.4c-6-2.3-13-3.9-23-4.4-10-.4-13.3-.5-39-.5zm-8.5 17h8.5c25.2 0 28.2 0 38.2.5 9.2.5 14.2 2 17.5 3.3 4.4 1.7 7.6 3.8 10.9 7 3.3 3.4 5.3 6.5 7 11 1.3 3.3 2.9 8.3 3.3 17.5.5 10 .6 13 .6 38.2 0 25.2-.1 28.2-.6 38.1-.4 9.2-2 14.2-3.3 17.6a29.2 29.2 0 0 1-7 10.8 29.2 29.2 0 0 1-10.9 7.1 52.1 52.1 0 0 1-17.5 3.3c-10 .4-13 .5-38.2.5-25.3 0-28.2 0-38.2-.5-9.2-.5-14.2-2-17.6-3.3a29.3 29.3 0 0 1-10.8-7 29.3 29.3 0 0 1-7-11 52.2 52.2 0 0 1-3.3-17.5c-.5-10-.6-13-.6-38.2 0-25.2.1-28.2.6-38.1.4-9.3 2-14.3 3.2-17.6 1.7-4.4 3.8-7.6 7-10.9 3.4-3.3 6.5-5.3 11-7 3.3-1.3 8.3-2.9 17.5-3.3 8.7-.4 12-.5 29.7-.5zm59 15.7a11.3 11.3 0 1 0 11.3 11.3c0-6.2-5.1-11.3-11.4-11.3zM128 79.4a48.5 48.5 0 1 0 0 97.1 48.5 48.5 0 0 0 0-97zm0 17a31.5 31.5 0 1 1 0 63 31.5 31.5 0 0 1 0-63z"/>
</svg>
