<svg xmlns="http://www.w3.org/2000/svg" width="1024" height="1024" version="1">
  <defs>
    <clipPath id="b">
      <circle cx="350" cy="538" r="350"/>
    </clipPath>
    <clipPath id="a">
      <circle cx="674" cy="538" r="350"/>
    </clipPath>
  </defs>
  <path fill="#ff9400" d="M512 26h512v1024H512z" clip-path="url(#a)" transform="translate(0 -83)"/>
  <path fill="#ff0039" d="M0 26h512v1024H0z" clip-path="url(#b)" transform="translate(0 -83)"/>
  <path fill="#ff4a1d" d="M532 115l1 10c1 8-1 15-3 22l10-14c-4 6 6 21 8 26 5 12 8 20 3 32-6 16-13 31-21 46 12-11 22-24 29-39 3 24-2 49-15 70 7-6 13-13 17-21l9 45c2 13 4 26-3 37-5 10-13 19-20 28-9 11-15 24-24 35 15-19 34-36 54-49 7 33-15 70-26 100 5-13 13-26 23-36 1 18 5 37 4 54-1 18-8 36-16 52 9-9 14-20 18-32l1 14v10l-4 12-9 19 14-24c0 31 6 66-24 88l28-21c1 22 4 42 1 61s-11 38-17 57l8-1c1 22-4 42-20 62-2 12-40-15 65 147l32 52-3 4c-5-5-11-9-14-14-39-53-65-90-92-150-5-13-12-20-25-23-15-3-28-8-40-16l12 1c-19-13-35-30-49-49 3-2 6-1 8 1l-11-20 15-7a74 74 0 0 1-28-52l32 11c-54-29-57-83-69-132l3-2 49 28c-5-7-12-12-19-18-11-9-24-17-32-28-11-16-16-35-17-55v-57c7 6 13 15 20 22l10 11c3 3 9 8 11 12-3-8-7-16-12-23l-11-21-12-23a1326 1326 0 0 1 2-36l4-24 7 3c4 1 6 4 9 6-3-3-4-8-4-12 5 1 9 4 13 7l-17-26-2-3v-5l4-12 16 12c-2-13-15-22-9-37 5-14 13-28 20-42l4-7 21 45c-3-18-11-35-13-52-2-19 12-33 26-49l-2 30c5-9 7-18 10-27 8-24 29-43 43-65 2 18 14 34 19 52z"/>
</svg>
